<svg width="40" height="40" viewBox="0 0 40 40" fill="none" xmlns="http://www.w3.org/2000/svg">
<path d="M34.3666 14.0834C32.6166 6.38335 25.9 2.91669 20 2.91669C20 2.91669 20 2.91669 19.9833 2.91669C14.1 2.91669 7.36664 6.36669 5.61664 14.0667C3.66664 22.6667 8.93331 29.95 13.7 34.5333C15.4666 36.2333 17.7333 37.0834 20 37.0834C22.2666 37.0834 24.5333 36.2333 26.2833 34.5333C31.05 29.95 36.3166 22.6834 34.3666 14.0834ZM20 22.4334C17.1 22.4334 14.75 20.0834 14.75 17.1834C14.75 14.2834 17.1 11.9334 20 11.9334C22.9 11.9334 25.25 14.2834 25.25 17.1834C25.25 20.0834 22.9 22.4334 20 22.4334Z" fill="white"/>
</svg>
