<svg width="40" height="40" viewBox="0 0 40 40" fill="none" xmlns="http://www.w3.org/2000/svg">
<path d="M27.0667 3.33331H12.9334C8.33335 3.33331 6.66669 4.99998 6.66669 9.68331V30.3166C6.66669 35 8.33335 36.6666 12.9334 36.6666H27.05C31.6667 36.6666 33.3334 35 33.3334 30.3166V9.68331C33.3334 4.99998 31.6667 3.33331 27.0667 3.33331ZM20 32.1666C18.4 32.1666 17.0834 30.85 17.0834 29.25C17.0834 27.65 18.4 26.3333 20 26.3333C21.6 26.3333 22.9167 27.65 22.9167 29.25C22.9167 30.85 21.6 32.1666 20 32.1666ZM23.3334 10.4166H16.6667C15.9834 10.4166 15.4167 9.84998 15.4167 9.16665C15.4167 8.48331 15.9834 7.91665 16.6667 7.91665H23.3334C24.0167 7.91665 24.5834 8.48331 24.5834 9.16665C24.5834 9.84998 24.0167 10.4166 23.3334 10.4166Z" fill="white"/>
</svg>
